{
  "accessors": [
    {
      "bufferView": 3,
      "componentType": 5126,
      "count": 6537,
      "max": [
        69.2859878540039,
        18.126914978027344,
        156.66983032226563
      ],
      "min": [
        -69.2859878540039,
        -12.277496337890625,
        93.23204040527344
      ],
      "type": "VEC3"
    },
    {
      "bufferView": 3,
      "byteOffset": 78444,
      "componentType": 5126,
      "count": 6537,
      "max": [
        0.9997462034225464,
        0.9982346892356873,
        0.9028031229972839
      ],
      "min": [
        -0.9997461438179016,
        -0.9991756081581116,
        -0.9991189241409302
      ],
      "type": "VEC3"
    },
    {
      "bufferView": 4,
      "componentType": 5126,
      "count": 6537,
      "max": [
        0.9999321699142456,
        0.9891328811645508,
        0.9999316334724426,
        1.0
      ],
      "min": [
        -0.9999321699142456,
        -0.9933334589004517,
        -0.9978245496749878,
        -1.0
      ],
      "type": "VEC4"
    },
    {
      "bufferView": 2,
      "componentType": 5126,
      "count": 6537,
      "max": [
        0.9968327283859253,
        0.9972876906394958
      ],
      "min": [
        0.010872453451156616,
        0.004494607448577881
      ],
      "type": "VEC2"
    },
    {
      "bufferView": 1,
      "componentType": 5125,
      "count": 35538,
      "type": "SCALAR"
    },
    {
      "bufferView": 5,
      "componentType": 5126,
      "count": 71,
      "max": [
        1.0,
        0.6073060035705566,
        0.8151511549949646,
        0.0,
        0.8269948363304138,
        1.0,
        0.9945775866508484,
        0.0,
        0.9560558199882507,
        0.7860209345817566,
        1.0,
        0.0,
        89.64703369140625,
        122.56037139892578,
        150.78775024414063,
        1.0
      ],
      "min": [
        -0.08822035789489746,
        -0.9650411605834961,
        -0.04751192778348923,
        0.0,
        -0.8269947171211243,
        -0.9926744699478149,
        -0.9945775866508484,
        0.0,
        -0.9560558199882507,
        -0.7860209345817566,
        -0.985579788684845,
        0.0,
        -89.64717102050781,
        -122.56041717529297,
        -150.78765869140625,
        1.0
      ],
      "type": "MAT4"
    },
    {
      "bufferView": 0,
      "componentType": 5123,
      "count": 6537,
      "type": "VEC4"
    },
    {
      "bufferView": 4,
      "byteOffset": 104592,
      "componentType": 5126,
      "count": 6537,
      "max": [
        1.0,
        0.49803924560546875,
        0.3176470398902893,
        0.03529411926865578
      ],
      "min": [
        0.3490195870399475,
        0.0,
        0.0,
        0.0
      ],
      "type": "VEC4"
    }
  ],
  "asset": {
    "extras": {
      "author": "Batin1234tr (https://sketchfab.com/Batin1234tr)",
      "license": "CC-BY-4.0 (http://creativecommons.org/licenses/by/4.0/)",
      "source": "https://sketchfab.com/3d-models/human-arms-d829cff542df4c06b9993f060f41b467",
      "title": "Human Arms"
    },
    "generator": "Sketchfab-15.10.0",
    "version": "2.0"
  },
  "bufferViews": [
    {
      "buffer": 0,
      "byteLength": 52296,
      "byteStride": 8,
      "name": "shortBufferViews",
      "target": 34962
    },
    {
      "buffer": 0,
      "byteLength": 142152,
      "byteOffset": 52296,
      "name": "floatBufferViews",
      "target": 34963
    },
    {
      "buffer": 0,
      "byteLength": 52296,
      "byteOffset": 194448,
      "byteStride": 8,
      "name": "floatBufferViews",
      "target": 34962
    },
    {
      "buffer": 0,
      "byteLength": 156888,
      "byteOffset": 246744,
      "byteStride": 12,
      "name": "floatBufferViews",
      "target": 34962
    },
    {
      "buffer": 0,
      "byteLength": 209184,
      "byteOffset": 403632,
      "byteStride": 16,
      "name": "floatBufferViews",
      "target": 34962
    },
    {
      "buffer": 0,
      "byteLength": 4544,
      "byteOffset": 612816,
      "name": "floatBufferViews"
    }
  ],
  "buffers": [
    {
      "byteLength": 617360,
      "uri": "scene.bin"
    }
  ],
  "extensionsUsed": [
    "KHR_materials_specular"
  ],
  "images": [
    {
      "uri": "textures/M_Arms_baseColor.png"
    },
    {
      "uri": "textures/M_Arms_normal.png"
    }
  ],
  "materials": [
    {
      "doubleSided": true,
      "extensions": {
        "KHR_materials_specular": {
          "specularColorFactor": [
            1.0,
            1.0,
            1.0
          ],
          "specularFactor": 0.44952517950530896
        }
      },
      "name": "M_Arms",
      "normalTexture": {
        "index": 1
      },
      "pbrMetallicRoughness": {
        "baseColorTexture": {
          "index": 0
        },
        "metallicFactor": 0.0,
        "roughnessFactor": 0.9577051494623774
      }
    }
  ],
  "meshes": [
    {
      "name": "SK_Custom_Arms_M_Arms_0",
      "primitives": [
        {
          "attributes": {
            "JOINTS_0": 6,
            "NORMAL": 1,
            "POSITION": 0,
            "TANGENT": 2,
            "TEXCOORD_0": 3,
            "TEXCOORD_1": 3,
            "WEIGHTS_0": 7
          },
          "indices": 4,
          "material": 0,
          "mode": 4
        }
      ]
    }
  ],
  "nodes": [
    {
      "children": [
        1
      ],
      "matrix": [
        1.0,
        0.0,
        0.0,
        0.0,
        0.0,
        0.49014353752136214,
        0.871641755104065,
        0.0,
        0.0,
        -0.871641755104065,
        0.49014353752136214,
        0.0,
        0.0,
        0.0,
        0.0,
        1.0
      ],
      "name": "Sketchfab_model"
    },
    {
      "children": [
        2
      ],
      "matrix": [
        0.009999999776482582,
        0.0,
        0.0,
        0.0,
        0.0,
        -0.009999999776482582,
        0.0,
        0.0,
        0.0,
        0.0,
        -0.009999999776482582,
        0.0,
        0.0,
        0.0,
        0.0,
        1.0
      ],
      "name": "1be6c8ba238245fb994c13c9fa1277d4.fbx"
    },
    {
      "children": [
        3
      ],
      "name": "RootNode"
    },
    {
      "children": [
        4
      ],
      "name": "SK_Custom_Arms"
    },
    {
      "children": [
        5,
        6
      ],
      "name": "Object_4"
    },
    {
      "children": [
        7
      ],
      "name": "_rootJoint"
    },
    {
      "mesh": 0,
      "name": "Object_6",
      "skin": 0
    },
    {
      "children": [
        8,
        68,
        71,
        75,
        76
      ],
      "name": "root_01",
      "rotation": [
        1.4163846715969995e-16,
        0.0,
        0.0,
        1.0
      ]
    },
    {
      "children": [
        9,
        56,
        62
      ],
      "name": "pelvis_02",
      "rotation": [
        0.0012919269502162933,
        -0.7071055769920349,
        -0.0012919269502162933,
        0.7071056365966797
      ],
      "translation": [
        1.3536841578012896e-28,
        1.0561532974243164,
        96.75060272216797
      ]
    },
    {
      "children": [
        10
      ],
      "name": "spine_01_03",
      "rotation": [
        -6.566507780047696e-17,
        4.104754336028535e-18,
        -0.06238873675465584,
        0.9980519413948059
      ],
      "translation": [
        10.808877944946289,
        -0.8514151573181152,
        -6.079677234739622e-13
      ]
    },
    {
      "children": [
        11
      ],
      "name": "spine_02_04",
      "rotation": [
        7.476447482014409e-17,
        1.5205444123825343e-17,
        0.12242015451192856,
        0.9924783706665039
      ],
      "translation": [
        18.875349044799805,
        3.8011586666107178,
        5.96609410763449e-08
      ]
    },
    {
      "children": [
        12,
        33,
        54
      ],
      "name": "spine_03_05",
      "rotation": [
        -2.830227582607746e-17,
        6.329033490606582e-18,
        0.02425261214375496,
        0.999705970287323
      ],
      "translation": [
        13.407328605651855,
        0.42047739028930664,
        -5.559527447782098e-13
      ]
    },
    {
      "children": [
        13
      ],
      "name": "clavicle_l_06",
      "rotation": [
        0.2089177966117859,
        0.7294168472290039,
        0.12304427474737167,
        0.6396598219871521
      ],
      "translation": [
        11.883687973022461,
        -2.7320878505706787,
        -3.7819831371307373
      ]
    },
    {
      "children": [
        14,
        32
      ],
      "name": "upperarm_l_07",
      "rotation": [
        0.15394054353237152,
        0.2740093469619751,
        -0.17350433766841888,
        0.9333367347717285
      ],
      "translation": [
        15.784872055053711,
        -1.5140732045892946e-07,
        -3.9626303305340116e-07
      ]
    },
    {
      "children": [
        15,
        31
      ],
      "name": "lowerarm_l_08",
      "rotation": [
        0.07243816554546356,
        -0.037278011441230774,
        -0.27251675724983215,
        0.9586958289146423
      ],
      "translation": [
        30.339921951293945,
        -1.6464504426494386e-07,
        -1.120991692005191e-05
      ]
    },
    {
      "children": [
        16,
        19,
        22,
        25,
        28
      ],
      "name": "hand_l_09",
      "rotation": [
        -0.7479894757270813,
        -0.0314163938164711,
        -0.017805375158786774,
        0.6627274751663208
      ],
      "translation": [
        26.97515869140625,
        -1.1251100659137592e-05,
        -1.588383202033583e-05
      ]
    },
    {
      "children": [
        17
      ],
      "name": "index_01_l_010",
      "rotation": [
        0.1333051323890686,
        -0.003180040279403329,
        0.22317929565906525,
        0.9656141400337219
      ],
      "translation": [
        12.068038940429688,
        1.763401746749878,
        -2.10937237739563
      ]
    },
    {
      "children": [
        18
      ],
      "name": "index_02_l_011",
      "rotation": [
        0.01204311940819025,
        -0.002905650995671749,
        0.10444872826337814,
        0.9944531321525574
      ],
      "translation": [
        4.287632942199707,
        -4.1955972847063094e-05,
        -5.2962623158236966e-05
      ]
    },
    {
      "name": "index_03_l_012",
      "rotation": [
        0.01061126496642828,
        0.007850795052945614,
        -0.08285542577505112,
        0.9964741468429565
      ],
      "translation": [
        3.3937442302703857,
        9.713795589050278e-05,
        1.5089872249518521e-05
      ]
    },
    {
      "children": [
        20
      ],
      "name": "middle_01_l_013",
      "rotation": [
        0.028522174805402756,
        -0.056873828172683716,
        0.19848446547985077,
        0.9780367016792297
      ],
      "translation": [
        12.244291305541992,
        1.29361093044281,
        0.5712014436721802
      ]
    },
    {
      "children": [
        21
      ],
      "name": "middle_02_l_014",
      "rotation": [
        -0.018629098311066628,
        0.007972142659127712,
        0.10711719840765,
        0.9940398931503296
      ],
      "translation": [
        4.640328407287598,
        -4.433423964655958e-05,
        5.878096089872997e-06
      ]
    },
    {
      "name": "middle_03_l_015",
      "rotation": [
        0.0016217062948271632,
        -0.0388670414686203,
        -0.1336241513490677,
        0.9902682900428772
      ],
      "translation": [
        3.648881673812866,
        3.999057662440464e-05,
        -6.187771305121714e-06
      ]
    },
    {
      "children": [
        23
      ],
      "name": "pinky_01_l_016",
      "rotation": [
        -0.12953755259513855,
        -0.1878967136144638,
        0.14421294629573822,
        0.96286940574646
      ],
      "translation": [
        10.140602111816406,
        2.2631173133850098,
        4.6431427001953125
      ]
    },
    {
      "children": [
        24
      ],
      "name": "pinky_02_l_017",
      "rotation": [
        0.01035948283970356,
        -0.010519417002797127,
        0.09774862974882126,
        0.9951016306877136
      ],
      "translation": [
        3.57102370262146,
        6.101195322116837e-05,
        -6.444388418458402e-06
      ]
    },
    {
      "name": "pinky_03_l_018",
      "rotation": [
        0.0035819397307932377,
        0.03379661962389946,
        0.0089305080473423,
        0.9993824362754822
      ],
      "translation": [
        2.9856197834014893,
        -2.424446211080067e-05,
        3.800951526500285e-05
      ]
    },
    {
      "children": [
        26
      ],
      "name": "ring_01_l_019",
      "rotation": [
        -0.09548050910234451,
        -0.11676522344350815,
        0.18851113319396973,
        0.9704189300537109
      ],
      "translation": [
        11.497905731201172,
        1.7535476684570313,
        2.846928834915161
      ]
    },
    {
      "children": [
        27
      ],
      "name": "ring_02_l_020",
      "rotation": [
        0.004300355911254883,
        -0.014167769812047482,
        0.11596357077360153,
        0.9931432008743286
      ],
      "translation": [
        4.430130958557129,
        -1.5084912774909753e-05,
        -2.356695222260896e-05
      ]
    },
    {
      "name": "ring_03_l_021",
      "rotation": [
        -0.00019851535034831613,
        0.026257557794451714,
        -0.11221296340227127,
        0.9933372735977173
      ],
      "translation": [
        3.4766650199890137,
        -6.024095000611851e-06,
        -1.4839095456409268e-05
      ]
    },
    {
      "children": [
        29
      ],
      "name": "thumb_01_l_022",
      "rotation": [
        0.6303091645240784,
        0.3715250492095947,
        -0.07729038596153259,
        0.6772781014442444
      ],
      "translation": [
        4.76200532913208,
        2.3749125003814697,
        -2.5377821922302246
      ]
    },
    {
      "children": [
        30
      ],
      "name": "thumb_02_l_023",
      "rotation": [
        0.0026045588310807943,
        0.08679841458797455,
        0.13014180958271027,
        0.9876853823661804
      ],
      "translation": [
        3.869748830795288,
        4.036426616949029e-05,
        -4.6175362513167784e-05
      ]
    },
    {
      "name": "thumb_03_l_024",
      "rotation": [
        0.02139953151345253,
        0.0018833683570846915,
        -0.10793812572956085,
        0.9939255118370056
      ],
      "translation": [
        4.062150478363037,
        -5.704353316104971e-05,
        1.1301940503471997e-05
      ]
    },
    {
      "name": "lowerarm_twist_01_l_025",
      "rotation": [
        2.5673907444456745e-16,
        -2.7755575615628914e-17,
        1.249000902703301e-16,
        1.0
      ],
      "translation": [
        13.99999713897705,
        -5.461799446493387e-06,
        4.657835233956575e-06
      ]
    },
    {
      "name": "upperarm_twist_01_l_026",
      "rotation": [
        6.938893903907228e-18,
        2.7755575615628914e-17,
        -2.0816681711721685e-17,
        1.0
      ],
      "translation": [
        0.49999964237213135,
        2.180506584181785e-07,
        3.2945771977210825e-07
      ]
    },
    {
      "children": [
        34
      ],
      "name": "clavicle_r_027",
      "rotation": [
        0.7294169664382935,
        -0.20891767740249634,
        -0.6396597027778625,
        0.12304434180259705
      ],
      "translation": [
        11.8837890625,
        -2.732102394104004,
        3.7820026874542236
      ]
    },
    {
      "children": [
        35,
        53
      ],
      "name": "upperarm_r_028",
      "rotation": [
        0.15394045412540436,
        0.2740093469619751,
        -0.17350442707538605,
        0.9333367347717285
      ],
      "translation": [
        -15.784798622131348,
        -7.228158210637048e-06,
        -1.0831323379534297e-05
      ]
    },
    {
      "children": [
        36,
        52
      ],
      "name": "lowerarm_r_029",
      "rotation": [
        0.07243826985359192,
        -0.03727801889181137,
        -0.27251648902893066,
        0.9586958885192871
      ],
      "translation": [
        -30.340042114257813,
        -3.26319945997966e-06,
        1.3381252756516915e-05
      ]
    },
    {
      "children": [
        37,
        40,
        43,
        46,
        49
      ],
      "name": "hand_r_030",
      "rotation": [
        -0.7479894757270813,
        -0.031416259706020355,
        -0.017805414274334908,
        0.6627274751663208
      ],
      "translation": [
        -26.97525978088379,
        3.6567202187143266e-05,
        1.487534427724313e-05
      ]
    },
    {
      "children": [
        38
      ],
      "name": "index_01_r_031",
      "rotation": [
        0.1333051323890686,
        -0.003180040279403329,
        0.22317929565906525,
        0.9656141400337219
      ],
      "translation": [
        -12.067865371704102,
        -1.763665795326233,
        2.1094038486480713
      ]
    },
    {
      "children": [
        39
      ],
      "name": "index_02_r_032",
      "rotation": [
        0.01204311940819025,
        -0.002905650995671749,
        0.10444872826337814,
        0.9944531321525574
      ],
      "translation": [
        -4.2878241539001465,
        0.00013466049858834594,
        -2.2221067411010154e-05
      ]
    },
    {
      "name": "index_03_r_033",
      "rotation": [
        0.01061126496642828,
        0.007850795052945614,
        -0.08285542577505112,
        0.9964741468429565
      ],
      "translation": [
        -3.393751621246338,
        2.3940117898746394e-05,
        -2.7209616746404208e-05
      ]
    },
    {
      "children": [
        41
      ],
      "name": "middle_01_r_034",
      "rotation": [
        0.028522174805402756,
        -0.056873828172683716,
        0.19848446547985077,
        0.9780367016792297
      ],
      "translation": [
        -12.244124412536621,
        -1.2936912775039673,
        -0.571169912815094
      ]
    },
    {
      "children": [
        42
      ],
      "name": "middle_02_r_035",
      "rotation": [
        -0.018629098311066628,
        0.007972142659127712,
        0.10711719840765,
        0.9940398931503296
      ],
      "translation": [
        -4.6405229568481445,
        -0.00010010183905251324,
        2.1944899799564155e-06
      ]
    },
    {
      "name": "middle_03_r_036",
      "rotation": [
        0.0016217062948271632,
        -0.0388670414686203,
        -0.1336241513490677,
        0.9902682900428772
      ],
      "translation": [
        -3.64894700050354,
        -7.2268098847416695e-06,
        3.2415052828582702e-06
      ]
    },
    {
      "children": [
        44
      ],
      "name": "pinky_01_r_037",
      "rotation": [
        -0.12953755259513855,
        -0.1878967136144638,
        0.14421294629573822,
        0.96286940574646
      ],
      "translation": [
        -10.14052963256836,
        -2.2633206844329834,
        -4.643089294433594
      ]
    },
    {
      "children": [
        45
      ],
      "name": "pinky_02_r_038",
      "rotation": [
        0.01035948283970356,
        -0.010519417002797127,
        0.09774862974882126,
        0.9951016306877136
      ],
      "translation": [
        -3.571099281311035,
        -0.00013945801765657961,
        -2.2336910205922322e-06
      ]
    },
    {
      "name": "pinky_03_r_039",
      "rotation": [
        0.003582002129405737,
        0.03379662334918976,
        0.008930514566600323,
        0.9993824362754822
      ],
      "translation": [
        -2.9854092597961426,
        0.00034175903419964015,
        -7.193387136794627e-05
      ]
    },
    {
      "children": [
        47
      ],
      "name": "ring_01_r_040",
      "rotation": [
        -0.09548050910234451,
        -0.11676522344350815,
        0.18851113319396973,
        0.9704189300537109
      ],
      "translation": [
        -11.497994422912598,
        -1.7537872791290283,
        -2.846930980682373
      ]
    },
    {
      "children": [
        48
      ],
      "name": "ring_02_r_041",
      "rotation": [
        0.004300355911254883,
        -0.014167769812047482,
        0.11596357077360153,
        0.9931432008743286
      ],
      "translation": [
        -4.4298176765441895,
        9.948712977347896e-05,
        4.21885670220945e-06
      ]
    },
    {
      "name": "ring_03_r_042",
      "rotation": [
        -0.00019851535034831613,
        0.026257557794451714,
        -0.11221296340227127,
        0.9933372735977173
      ],
      "translation": [
        -3.4766714572906494,
        7.821703184163198e-05,
        1.305752812186256e-05
      ]
    },
    {
      "children": [
        50
      ],
      "name": "thumb_01_r_043",
      "rotation": [
        0.6303091645240784,
        0.3715250492095947,
        -0.07729038596153259,
        0.6772781014442444
      ],
      "translation": [
        -4.7620930671691895,
        -2.375051736831665,
        2.537764549255371
      ]
    },
    {
      "children": [
        51
      ],
      "name": "thumb_02_r_044",
      "rotation": [
        0.0026045588310807943,
        0.08679841458797455,
        0.13014180958271027,
        0.9876853823661804
      ],
      "translation": [
        -3.8696463108062744,
        7.004963845247403e-05,
        0.00010175327042816207
      ]
    },
    {
      "name": "thumb_03_r_045",
      "rotation": [
        0.02139953151345253,
        0.0018833683570846915,
        -0.10793812572956085,
        0.9939255118370056
      ],
      "translation": [
        -4.062154293060303,
        6.189986743265763e-05,
        -7.613075922563439e-06
      ]
    },
    {
      "name": "lowerarm_twist_01_r_046",
      "rotation": [
        -0.11762771010398865,
        2.6746683274832687e-17,
        1.0155547016039124e-17,
        0.9930577874183655
      ],
      "translation": [
        -13.999998092651367,
        2.9048836950096302e-05,
        -1.1030538189515937e-05
      ]
    },
    {
      "name": "upperarm_twist_01_r_047",
      "rotation": [
        -0.17323477566242218,
        2.733592703854606e-17,
        4.80823091515487e-18,
        0.9848805665969849
      ],
      "translation": [
        -0.499999076128006,
        -3.246311280236114e-06,
        -1.060443196365668e-06
      ]
    },
    {
      "children": [
        55
      ],
      "name": "neck_01_048",
      "rotation": [
        8.737049559721542e-17,
        -2.8599478511445313e-17,
        -0.2037101835012436,
        0.9790312647819519
      ],
      "translation": [
        16.55878257751465,
        -0.3553175628185272,
        -5.96597331536941e-08
      ]
    },
    {
      "name": "head_049",
      "rotation": [
        4.57235415963078e-18,
        -5.186584154517238e-18,
        0.13354241847991943,
        0.9910430908203125
      ],
      "translation": [
        9.283613204956055,
        0.3641568720340729,
        -7.773461914309734e-15
      ]
    },
    {
      "children": [
        57,
        61
      ],
      "name": "thigh_l_050",
      "rotation": [
        0.050558462738990784,
        -0.0508611835539341,
        -0.008206810802221298,
        0.997391402721405
      ],
      "translation": [
        -1.4488286972045898,
        -0.5314235091209412,
        -9.005809783935547
      ]
    },
    {
      "children": [
        58,
        59
      ],
      "name": "calf_l_051",
      "rotation": [
        -0.031321462243795395,
        -0.002081155078485608,
        -0.06825830787420273,
        0.9971737265586853
      ],
      "translation": [
        -42.57203674316406,
        1.7074230918012745e-10,
        -4.667910502575978e-10
      ]
    },
    {
      "name": "calf_twist_01_l_052",
      "rotation": [
        0.0028089433908462524,
        -0.0019333845702931285,
        -0.0076126898638904095,
        0.9999653100967407
      ],
      "translation": [
        -20.476776123046875,
        -1.7763568394002505e-15,
        3.552713678800501e-15
      ]
    },
    {
      "children": [
        60
      ],
      "name": "foot_l_053",
      "rotation": [
        0.00046361307613551617,
        0.04326782748103142,
        0.07259909063577652,
        0.9964221119880676
      ],
      "translation": [
        -40.19668960571289,
        -3.933848802262219e-09,
        1.8994228412338998e-10
      ]
    },
    {
      "name": "ball_l_054",
      "rotation": [
        8.008883014554158e-05,
        2.9605243980768137e-05,
        -0.7186337113380432,
        0.6953887939453125
      ],
      "translation": [
        -10.453837394714355,
        -16.57785415649414,
        0.08015594631433487
      ]
    },
    {
      "name": "thigh_twist_01_l_055",
      "rotation": [
        -0.04744366183876991,
        2.1476431356859393e-05,
        -0.0004911086871288717,
        0.9988738894462585
      ],
      "translation": [
        -22.09423828125,
        1.1102230246251565e-15,
        -7.105427357601002e-15
      ]
    },
    {
      "children": [
        63,
        67
      ],
      "name": "thigh_r_00",
      "rotation": [
        0.050863537937402725,
        0.050558190792798996,
        0.997391402721405,
        0.00820615142583847
      ],
      "translation": [
        -1.4486445188522339,
        -0.5314275622367859,
        9.005803108215332
      ]
    },
    {
      "children": [
        64,
        65
      ],
      "name": "calf_r_056",
      "rotation": [
        -0.03132098540663719,
        -0.0020765361841768026,
        -0.06825987994670868,
        0.9971736669540405
      ],
      "translation": [
        42.57225036621094,
        -1.6233628912232234e-06,
        -5.836755576638097e-07
      ]
    },
    {
      "name": "calf_twist_01_r_057",
      "rotation": [
        0.0028072798158973455,
        -0.0019337290432304144,
        -0.007612532936036587,
        0.9999653100967407
      ],
      "translation": [
        20.47690773010254,
        -1.7763568394002505e-15,
        3.552713678800501e-15
      ]
    },
    {
      "children": [
        66
      ],
      "name": "foot_r_058",
      "rotation": [
        0.00046315789222717285,
        0.04326546564698219,
        0.07259981334209442,
        0.9964221715927124
      ],
      "translation": [
        40.19681930541992,
        1.6769354260759428e-06,
        -1.0918018233496696e-05
      ]
    },
    {
      "name": "ball_r_059",
      "rotation": [
        8.008883014554158e-05,
        2.9605243980768137e-05,
        -0.7186337113380432,
        0.6953887939453125
      ],
      "translation": [
        10.453816413879395,
        16.577796936035156,
        -0.08015844970941544
      ]
    },
    {
      "name": "thigh_twist_01_r_060",
      "rotation": [
        -0.04744531214237213,
        2.1898284103372134e-05,
        -0.0004911788273602724,
        0.9988737106323242
      ],
      "translation": [
        22.094240188598633,
        4.884981308350689e-15,
        0.0
      ]
    },
    {
      "children": [
        69,
        70
      ],
      "name": "ik_foot_root_061",
      "rotation": [
        -1.1102228922762585e-16,
        -0.0,
        0.0,
        1.0
      ]
    },
    {
      "name": "ik_foot_l_062",
      "rotation": [
        0.020529862493276596,
        -0.7122341990470886,
        0.011721709743142128,
        0.7015437483787537
      ],
      "translation": [
        17.076271057128906,
        8.072127342224121,
        13.465730667114258
      ]
    },
    {
      "name": "ik_foot_r_063",
      "rotation": [
        -0.7015427350997925,
        0.01172596961259842,
        0.7122349739074707,
        0.020535485818982124
      ],
      "translation": [
        -17.0762882232666,
        8.072148323059082,
        13.46557331085205
      ]
    },
    {
      "children": [
        72
      ],
      "name": "ik_hand_root_064",
      "rotation": [
        -2.465190328815662e-32,
        -0.0,
        0.0,
        1.0
      ]
    },
    {
      "children": [
        73,
        74
      ],
      "name": "ik_hand_gun_065",
      "rotation": [
        0.6188492774963379,
        -0.06954102963209152,
        0.38913628458976746,
        0.6787949204444885
      ],
      "translation": [
        -56.64609909057617,
        0.33541175723075867,
        111.67965698242188
      ]
    },
    {
      "name": "ik_hand_l_066",
      "rotation": [
        0.687474250793457,
        -0.6143576502799988,
        0.38722577691078186,
        -7.209209798020311e-07
      ],
      "translation": [
        77.88542938232422,
        -69.60191345214844,
        43.869503021240234
      ]
    },
    {
      "name": "ik_hand_r_067",
      "rotation": [
        -5.551115123125783e-17,
        4.163336342344337e-17,
        2.7755575615628914e-17,
        1.0
      ],
      "translation": [
        0.0,
        -8.526512829121202e-14,
        -7.105427357601002e-15
      ]
    },
    {
      "name": "gun_r_068",
      "rotation": [
        0.7071067094802856,
        0.0,
        0.0,
        0.70710688829422
      ]
    },
    {
      "name": "gun_l_069",
      "rotation": [
        0.7071067094802856,
        0.0,
        0.0,
        0.70710688829422
      ]
    }
  ],
  "samplers": [
    {
      "magFilter": 9729,
      "minFilter": 9987,
      "wrapS": 10497,
      "wrapT": 10497
    }
  ],
  "scene": 0,
  "scenes": [
    {
      "name": "Sketchfab_Scene",
      "nodes": [
        0
      ]
    }
  ],
  "skins": [
    {
      "inverseBindMatrices": 5,
      "joints": [
        5,
        7,
        8,
        9,
        10,
        11,
        12,
        13,
        14,
        15,
        16,
        17,
        18,
        19,
        20,
        21,
        22,
        23,
        24,
        25,
        26,
        27,
        28,
        29,
        30,
        31,
        32,
        33,
        34,
        35,
        36,
        37,
        38,
        39,
        40,
        41,
        42,
        43,
        44,
        45,
        46,
        47,
        48,
        49,
        50,
        51,
        52,
        53,
        54,
        55,
        56,
        57,
        58,
        59,
        60,
        61,
        62,
        63,
        64,
        65,
        66,
        67,
        68,
        69,
        70,
        71,
        72,
        73,
        74,
        75,
        76
      ],
      "skeleton": 5
    }
  ],
  "textures": [
    {
      "sampler": 0,
      "source": 0
    },
    {
      "sampler": 0,
      "source": 1
    }
  ]
}
